<svg width="46" height="40" viewBox="0 0 46 40" fill="none" xmlns="http://www.w3.org/2000/svg">
<circle/>
<path d="M27.4995 24.125L26.7495 23C25.5495 21.2 24.9495 19.025 24.9495 16.85C24.9495 14.525 23.4495 12.575 21.4245 11.975C21.1995 11.375 20.5995 11 19.9995 11C19.3995 11 18.7995 11.375 18.5745 11.975C16.5495 12.575 15.0495 14.525 15.0495 16.85C15.0495 19.025 14.4495 21.2 13.2495 23L12.4995 24.125C12.1995 24.65 12.4995 25.25 13.0995 25.25H26.8245C27.4245 25.25 27.7995 24.575 27.4995 24.125Z" stroke="white" stroke-width="2" stroke-miterlimit="10" stroke-linejoin="round"/>
<path d="M22.25 27.5C22.25 28.775 21.275 29.75 20 29.75C18.725 29.75 17.75 28.775 17.75 27.5" stroke="white" stroke-width="2" stroke-miterlimit="10" stroke-linejoin="round"/>
<circle cx="38" cy="10" r="8" fill="#FB4179"/>
<path d="M38.7901 5.72727H37.2099L37.3519 10.8196H38.6516L38.7901 5.72727ZM38.0018 13.0923C38.4563 13.0923 38.8505 12.7124 38.854 12.2401C38.8505 11.7749 38.4563 11.3949 38.0018 11.3949C37.533 11.3949 37.146 11.7749 37.1495 12.2401C37.146 12.7124 37.533 13.0923 38.0018 13.0923Z" fill="white"/>
</svg>
