<svg width="12" height="16" viewBox="0 0 12 16" fill="none" xmlns="http://www.w3.org/2000/svg">
<path fill-rule="evenodd" clip-rule="evenodd" d="M10 6.66667V4C10 1.79133 8.20867 0 6 0C3.79133 0 2 1.79133 2 4V6.66667H0V16H12V6.66667H10ZM6.66667 11.8153V13.3333H5.33333V11.8153C4.93667 11.584 4.66667 11.1593 4.66667 10.6667C4.66667 9.93067 5.264 9.33333 6 9.33333C6.736 9.33333 7.33333 9.93067 7.33333 10.6667C7.33333 11.1587 7.064 11.584 6.66667 11.8153ZM3.33333 4V6.66667H8.66667V4C8.66667 2.52933 7.47 1.33333 6 1.33333C4.52933 1.33333 3.33333 2.52933 3.33333 4Z" fill="#1A1A1A"/>
</svg>
