<svg width="30" height="30" viewBox="0 0 44 44" fill="none" xmlns="http://www.w3.org/2000/svg">
<g clip-path="url(#clip0_7388_7762)">
<path d="M22.0036 0H20.7207H20.698H20.5461H20.5227H20.4987H20.4746H20.4595H20.4485H20.4334H20.4224H20.4072H20.3969H20.3804H20.355H20.3302H20.3055H20.28H20.2546L20.1859 0.0055H20.1597H20.1343H20.1082C19.598 0.0515625 19.0941 0.112062 18.5957 0.188375L18.8081 1.54688C19.8675 1.408 20.9359 1.35025 22.0036 1.375V0ZM15.2386 1.05944C14.1475 1.41075 13.086 1.848 12.0637 2.36569L12.6825 3.59219C13.6409 3.10612 14.6357 2.69637 15.658 2.36569L15.2359 1.05944H15.2386ZM9.13223 4.15319C8.20273 4.82556 7.32754 5.56944 6.51354 6.37794L7.48154 7.35419C8.24535 6.59725 9.06623 5.90081 9.93729 5.27106L9.13223 4.15662V4.15319ZM4.26954 8.97806C4.08598 9.22969 3.90654 9.48544 3.73054 9.74463L3.70854 9.77763L3.6941 9.79962L3.68654 9.81063L3.6721 9.83194L3.66523 9.84225L3.65835 9.85256L3.65148 9.86287L3.63773 9.8835L3.63085 9.89381L3.62398 9.90413L3.6171 9.91444L3.61023 9.92475L3.60404 9.93437L3.59785 9.944L3.59166 9.95362L3.58479 9.96394L3.5786 9.97356L3.57241 9.9825L3.56623 9.99213L3.56004 10.0017L3.55385 10.0107L3.54766 10.0203L3.54216 10.0293L3.53529 10.0396L3.5291 10.0492L3.5236 10.0574L3.51741 10.0671L3.51123 10.0767L3.50504 10.0856L3.49885 10.0953L3.49335 10.1042L3.48716 10.1138L3.48098 10.1234L3.47616 10.1317L3.47066 10.1406L3.46585 10.1482L3.46104 10.1564V10.1599L3.45554 10.1688L3.45073 10.1764L3.44523 10.1853L3.43973 10.1936L3.43491 10.2011L3.42941 10.2101L3.4246 10.2169L3.4191 10.2252V10.2286L3.4136 10.2376L3.40948 10.2444L3.40398 10.2534L3.39916 10.2609V10.2651L3.39504 10.2719L3.38954 10.2809V10.2843L3.38541 10.2905V10.2946L3.3806 10.3022V10.3063L3.3036 10.4088V10.4122L3.29948 10.4184V10.4218L3.29398 10.4307V10.4349L3.28985 10.4411V10.4466L3.28573 10.4534V10.4576L3.28023 10.4658V10.4692L3.2761 10.4761L3.2706 10.4851V10.4892L3.26579 10.4967V10.5009L3.26166 10.5078V10.5112L3.25616 10.5194V10.5229L3.25204 10.5297V10.5339L3.24723 10.5414V10.5456L3.24173 10.5538V10.5579L3.2376 10.5641V10.5676L3.2321 10.5758V10.5799L3.22729 10.5882L3.22248 10.5957V10.5992L3.21698 10.6081V10.6116L3.21285 10.6184V10.6233L3.20804 10.6308V10.6349L3.20254 10.6439V10.6473L3.1991 10.6535V10.6576L3.19429 10.6659V10.67L3.19016 10.6769V10.6817L3.18604 10.6886V10.6927L3.18054 10.7016V10.7051L3.17641 10.7113V10.7154L3.1716 10.7236V10.7277L3.16748 10.7346V10.7401L3.16404 10.7463V10.7504L3.15923 10.7587V10.7635V10.769V10.7745L3.1551 10.7814V10.7855L3.15029 10.7944V10.7979L3.14616 10.8041V10.8075L3.14066 10.8164V10.8199L3.13585 10.8274V10.8322L3.13173 10.8391V10.8433L3.12691 10.8515V10.8556L3.12348 10.8618V10.8666L3.11866 10.8742V10.8783L3.11385 10.8872V10.8914L3.11041 10.8976V10.9017L3.1056 10.9099V10.9141L3.10148 10.9209V10.9257L3.09735 10.9326V10.9368L3.09254 10.945V10.9491L3.0891 10.9553V10.9594L3.08429 10.9677V10.9718L3.07948 10.9794V10.9835L3.07535 10.9904V10.9938L3.07054 11.0027V11.0062L3.06641 11.0138V11.0179L3.0616 11.0254V11.0296L3.05679 11.0385V11.0419L3.05266 11.0488L3.04785 11.0577V11.0612L3.04304 11.0694L3.03891 11.077V11.0811L3.0341 11.0901V11.0935L3.02998 11.1011V11.1045L3.02516 11.1128V11.1169L3.02035 11.1258V11.1292L3.01691 11.1361V11.1396L3.0121 11.1485V11.1519L3.00729 11.1602V11.1636L3.00316 11.1712V11.1753L2.99835 11.1842L2.99423 11.1911L2.98941 11.2001V11.2035L2.9846 11.2124V11.2159L2.98048 11.2227L2.97566 11.2317L2.97085 11.2406L2.96604 11.2496L2.96054 11.2592L2.95641 11.2674L2.95091 11.2771L2.9461 11.286L2.94198 11.2942L2.7536 11.3438L2.74879 11.352L2.74329 11.3616L2.73779 11.3713L2.73298 11.3802L2.72748 11.3905L2.72198 11.4001L2.71716 11.4091L2.71166 11.4187L2.70616 11.4283L2.70066 11.4386L2.69516 11.4489L2.69035 11.4586L2.68485 11.4689L2.67316 11.4902L2.66766 11.5005L2.66216 11.5108L2.65666 11.5218L2.64498 11.5438L2.63948 11.5548L2.63398 11.5658L2.62848 11.5768L2.62229 11.5878L2.6161 11.5988L2.6106 11.6098L2.59891 11.6318L2.59341 11.6428L2.58791 11.6538L2.58241 11.6648L2.57623 11.6758L2.57004 11.6868L2.56385 11.6985L2.55148 11.7212L2.54529 11.7336L2.5391 11.7452L2.53291 11.7569L2.52054 11.7803L2.51435 11.792L2.50198 11.8154L2.4896 11.8387L3.7106 12.4712C4.20491 11.517 4.77348 10.6026 5.4101 9.73706L4.26954 8.97806ZM1.12148 15.0562C1.00941 15.3924 0.905601 15.7328 0.810039 16.0765L0.803164 16.1019L0.796289 16.1274L0.785976 16.1659L0.779101 16.1913L0.772226 16.2161V16.2284V16.2408V16.2532L0.766039 16.2773V16.2889V16.2999V16.3116V16.3226V16.3343V16.3453V16.3563V16.3673V16.3769V16.3879V16.3976V16.4086V16.4196V16.4292V16.4395V16.4478V16.4512V16.4615V16.4649V16.4739V16.4842V16.4883V16.4972V16.5021V16.5096V16.5144V16.5241V16.5282V16.5357V16.5399V16.5495V16.5543V16.5619V16.5674V16.5749V16.5798V16.588V16.5935V16.5997V16.6052V16.6141V16.6196V16.6258V16.6327V16.6396V16.6458V16.6506V16.6602V16.6657V16.6712V16.6774V16.6863V16.6918V16.6973V16.7062V16.7124V16.7173V16.7248V16.7317V16.7379V16.7434V16.7523V16.7578V16.764V16.7688V16.7784V16.7833V16.7894V16.7984V16.8046V16.8087V16.819V16.8238V16.83V16.8341V16.8444V16.8486V16.8547V16.8596V16.8699V16.874V16.885V16.8884V16.8953V16.8994V16.9104V16.9139V16.9207V16.9249V16.9359V16.9813V16.9881V17.0026V17.0156V17.0225V17.0266V17.0376V17.05V17.0569V17.0693L0.553601 17.0968V17.1112V17.1187V17.1318V17.1394V17.1524L0.531601 17.1875V17.1909V17.2033V17.2102V17.2219V17.2253V17.2322V17.2439V17.2563L0.526789 17.2782V17.2817V17.2927V17.2968V17.3037V17.3078V17.3195V17.3264V17.3394V17.3436V17.3546V17.3587V17.3656V17.3697V17.3814V17.3937V17.4006V17.4048V17.4151V17.4192V17.4254V17.4323V17.4405V17.4453V17.4543V17.4597V17.4659V17.4708V17.4804V17.4852V17.4914V17.4969V17.5058V17.5113V17.5175V17.5264V17.5326V17.5381V17.5464V17.5526V17.5581V17.5649V17.5718V17.5794V17.5842V17.5931V17.5986V17.6055V17.6103V17.6199V17.6248V17.6323V17.6364V17.6467V17.6516V17.6598V17.6646V17.6729V17.677V17.6873V17.6914V17.6997V17.7031V17.7134V17.7169V17.7251V17.7354V17.7375V17.7478V17.7568V17.7677V17.7781V17.7897V17.8008V17.8131V17.8255V17.8372V17.8496V17.8626V17.8757L0.521976 17.9011C0.493101 18.0558 0.465601 18.2119 0.439476 18.3679L1.79591 18.5921C1.97123 17.5319 2.22904 16.4876 2.56729 15.4681L1.26104 15.0343L1.12148 15.0562ZM0.00360107 21.813V21.8357V21.9361V22V22.1409V23.3269V23.3496V23.4307V23.4437V23.4664V23.5579V23.5806V23.6033V23.6418V23.6555V23.6679V23.6823V23.6933V23.7153V23.727V23.7414V23.7806V23.7937V23.8067V23.8288V23.8411V23.8542V24.0075V24.0192V24.2942V24.3045V24.3196V24.3299V24.3451V24.3554V24.3705V24.3801V24.3898V24.4062V24.4166V24.4317V24.442V24.4564V24.4674V24.4771V24.4887V24.4998V24.5231V24.5341V24.5458V24.5568V24.5809V24.6049V24.629C0.0276636 24.8291 0.0537886 25.0278 0.0833511 25.2257L1.44391 25.025C1.34904 24.0199 1.32704 23.0086 1.3786 22V21.8247L0.00360107 21.813ZM2.31773 28.1758L1.00598 28.5883C1.06029 28.7602 1.11598 28.9314 1.17373 29.1019L1.20879 29.2036C1.23835 29.2882 1.26791 29.3727 1.29816 29.4573C1.58279 30.2479 1.91279 31.0214 2.28679 31.7735L3.5181 31.1616C3.04029 30.1998 2.63879 29.2016 2.31773 28.1758ZM5.17154 33.924L4.0516 34.7188C4.71229 35.6496 5.44448 36.5282 6.24129 37.3464L6.25023 37.356L7.23473 36.3935C6.48398 35.6228 5.79441 34.7957 5.17223 33.9185L5.17154 33.924ZM9.65473 38.522L8.82973 39.622C9.52204 40.1404 10.2446 40.6175 10.9933 41.0513L11.029 41.0719L11.0497 41.0836L11.0627 41.0912L11.0827 41.1029L11.095 41.1098L11.1019 41.1132L11.1129 41.1194L11.1232 41.1256H11.1294L11.1397 41.1311H11.1459H11.1507L11.159 41.1359H11.1631L11.172 41.1407H11.1769H11.1824H11.1865L11.1947 41.1455H11.1995H11.2044L11.2126 41.1503H11.2174H11.2229L11.2298 41.1538H11.2353H11.2401L11.2484 41.1586H11.2525H11.2587H11.2628L11.2717 41.1634H11.2759L11.2827 41.1675H11.2882L11.2944 41.1709H11.2985L11.3075 41.1758H11.3116L11.3185 41.1792H11.3233L11.3309 41.1833H11.3357L11.3439 41.1881H11.3474L11.3542 41.1922L11.3632 41.1971L11.3721 41.2019L11.3804 41.2067L11.3907 41.2122L11.3989 41.217L11.4085 41.2225L11.4182 41.228L11.4271 41.2328L11.4374 41.2383L11.4477 41.2438L11.4587 41.25L11.4697 41.2562L11.4807 41.2624L11.4917 41.2686L11.5027 41.2747L11.5137 41.2809L11.5247 41.2871L11.5481 41.2995L11.5598 41.3057L11.5715 41.3119L11.5832 41.3181L11.6059 41.3304L11.6175 41.3366L11.6409 41.349L11.676 41.3676L12.3786 40.2449C11.4285 39.7423 10.5196 39.1662 9.65885 38.522H9.65473ZM15.3294 41.525L14.8845 42.8264C15.7425 43.12 16.6184 43.3592 17.506 43.5435L17.5321 43.549L17.5582 43.5545H17.5713L17.596 43.5593L17.6201 43.5641H17.6318H17.6428H17.6545H17.6655H17.6772H17.6889H17.6985H17.7095H17.7129H17.7219H17.7322H17.7363H17.7452H17.7494H17.7576H17.7624H17.772H17.7762H17.783H17.8099H17.8195H17.8243H17.8312H17.8374H17.8456H17.8504H17.8573H17.8655H17.8717H17.8772H17.8841H17.8917H17.8965H17.9034H17.9109H17.9178H17.9219H17.9343H17.9419H17.9549L17.9783 43.5683L18.0024 43.5724H18.0189L18.0443 43.5772L18.1976 43.604L18.4327 42.2496C17.3809 42.0887 16.3434 41.8468 15.3294 41.525ZM24.8691 42.4311C23.9197 42.5611 22.962 42.6264 22.0036 42.625C21.8867 42.625 21.7699 42.625 21.653 42.625L21.6303 44H21.7121H23.6426H23.6646H23.7382H23.7602H23.7732H23.7959H23.833H23.8557H23.8681H23.8915H23.9039H23.9265H23.9609H23.9967H24.02L24.0888 43.9931C24.4126 43.9622 24.7337 43.9251 25.0513 43.8804L24.8622 42.5184L24.8691 42.4311ZM31.0099 40.5625C30.0439 41.0321 29.0422 41.4246 28.0144 41.7374L28.4145 43.0533C29.5111 42.7199 30.5802 42.3005 31.6114 41.7993L31.0099 40.5625ZM36.2768 36.8913C35.5006 37.6351 34.668 38.3178 33.786 38.9331L34.5725 40.0613L34.5787 40.0572H34.5821L34.5904 40.0517H34.5945L34.6007 40.0469H34.6055L34.6117 40.0428H34.6158L34.624 40.0373H34.6275L34.633 40.0331L34.6385 40.0297L34.6447 40.0256H34.6495L34.655 40.0214L34.6619 40.0166H34.666H34.6708L34.6784 40.0111H34.6832L34.688 40.0077L34.6949 40.0029H34.699L34.7045 39.9994L34.7114 39.9946L34.7162 39.9912H34.7203L34.7279 39.9857H34.7327L34.7375 39.9823H34.7416L34.7499 39.9761L34.7595 39.9692L34.765 39.9651L34.7746 39.9582L34.7801 39.9541L34.7918 39.9451L34.8028 39.9376L34.809 39.9328L34.8214 39.9238L34.8399 39.9101L34.8509 39.9018L34.8702 39.8881L34.9286 39.8063L34.9485 39.7918L34.9616 39.7822L34.9809 39.7677C35.2634 39.5608 35.5405 39.3484 35.812 39.1291L35.8437 39.1036L35.8945 39.0624L35.9447 39.0211L35.9757 38.9957L35.9935 38.9806L36.0039 38.9723L36.0224 38.9565L36.0341 38.9469L36.0403 38.9421L36.0513 38.9324L36.063 38.9228L36.0692 38.918L36.0802 38.9091L36.098 38.8939L36.1084 38.885L36.1262 38.8699L36.1372 38.8609L36.1427 38.8561L36.1524 38.8479L36.1695 38.8334L36.1778 38.8266L36.1833 38.8224L36.1922 38.8149L36.2349 38.775L36.2404 38.7702L36.2486 38.7626L36.2651 38.7482L36.2734 38.7413L36.2782 38.7372L36.283 38.7331L36.2899 38.7276H36.2933L36.3009 38.7214L36.305 38.7179L36.3098 38.7138L36.3139 38.7104L36.3208 38.7042H36.3249L36.329 38.7001L36.3359 38.6946L36.3407 38.6904L36.3449 38.687L36.351 38.6815L36.3559 38.6774L36.36 38.6739L36.3669 38.6684L36.371 38.665L36.3758 38.6609L36.3806 38.6567L36.3868 38.6513H36.3909L36.3964 38.6464L36.4019 38.6416L36.4067 38.6375H36.4109L36.4177 38.6313L36.4219 38.6272L36.4411 38.6004L36.4466 38.5956L36.4521 38.5908L36.4562 38.5873L36.4631 38.5811H36.4672L36.472 38.577L36.4769 38.5729L36.483 38.5674H36.4865L36.4927 38.5619L36.4975 38.5578L36.503 38.5529H36.5064L36.5133 38.5467L36.5174 38.5433L36.5222 38.5392L36.527 38.5351L36.5325 38.5303H36.536L36.5435 38.5241L36.5532 38.5H36.5566L36.5635 38.4938H36.5669L36.5738 38.4876L36.5793 38.4828L36.5869 38.4766H36.5903L36.5965 38.4711H36.5999L36.6061 38.4656L36.6137 38.4587L36.6199 38.4533L36.6274 38.4464L36.635 38.4395L36.6412 38.434L36.6487 38.4271L36.6556 38.4209L36.6632 38.4141L36.6714 38.4072L36.6783 38.401L36.6865 38.3934L36.6948 38.3859L36.7017 38.3797L36.7099 38.3728L36.7175 38.3659L36.725 38.3591L36.7849 38.2938L36.7931 38.2862L36.802 38.2786L36.8103 38.2711L36.8179 38.2642L36.8268 38.2559L36.835 38.2484L36.8433 38.2408L36.8515 38.2332L36.8591 38.2264L36.8674 38.2188L36.8756 38.2113L36.8832 38.2044L36.8914 38.1968L36.8997 38.1893L36.9079 38.1817L36.9162 38.1741L36.9251 38.1659L36.934 38.1576L36.943 38.1494L36.9512 38.1418L36.9595 38.1336L36.9684 38.1253L36.9774 38.1171L36.9856 38.1095L36.9939 38.1019L37.0028 38.0937L37.011 38.0854L37.0186 38.0779L37.0269 38.0703L37.0351 38.0621L37.0434 38.0538L37.0523 38.0456L37.0612 38.0373L37.0702 38.0291L37.1286 37.9754L37.1369 37.9672L37.1458 37.9589L37.1637 37.9424L37.1726 37.9342L37.1815 37.9259L37.1905 37.9177L37.1987 37.9094L37.2063 37.9019L37.2145 37.8936L36.263 36.9009L36.2768 36.8913ZM40.1674 31.7838C39.6565 32.7298 39.0729 33.6339 38.4218 34.4891L39.5156 35.3224C39.7617 35.0013 39.9989 34.6713 40.2272 34.3324L40.2499 34.2994L40.2643 34.2781L40.2712 34.2677L40.278 34.2574L40.2849 34.2471L40.2918 34.2375L40.298 34.2286L40.3042 34.2189L40.3104 34.21L40.3165 34.2011L40.3227 34.1921L40.3275 34.1846L40.333 34.1763V34.1722L40.3379 34.1646V34.1605L40.342 34.1543V34.1502L40.3475 34.1419V34.1378L40.3509 34.1323L40.355 34.1254V34.1206V34.1158L40.3592 34.1096L40.3633 34.1034V34.0986L40.3681 34.0911V34.0863L40.3715 34.0807V34.0773L40.3777 34.0684L40.3901 34.0498L40.397 34.0388L40.41 34.0182L40.4231 33.9976C40.7462 33.4998 41.0494 32.989 41.3327 32.4644L40.1227 31.8113L40.1674 31.7838ZM42.2938 25.7338C42.1006 26.7905 41.8249 27.8307 41.4688 28.8441L42.7661 29.2999C42.8232 29.1383 42.8782 28.9761 42.9311 28.8124L42.9387 28.7891L42.9462 28.7657L42.951 28.7506V28.743L42.9552 28.7299L42.962 28.7079L42.9655 28.6963V28.6901V28.6859V28.6756V28.6715V28.6653V28.6612V28.6516V28.6467V28.6413V28.6323V28.6268V28.6213V28.6137V28.6076V28.6021V28.5952V28.589V28.5821V28.5773V28.5677V28.5636V28.556V28.5519V28.5422V28.5381V28.5306V28.5264V28.5168V28.5127V28.5037V28.4989V28.4914V28.4873V28.4776V28.4735V28.4653V28.4549V28.4515V28.4419V28.4316V28.4206V28.4109V28.3999V28.3903V28.3793V28.3683V28.3573L42.9689 28.3449V28.3339L42.9724 28.3223L42.9792 28.2989L42.9861 28.2748L42.9895 28.2624L42.993 28.2501L43.1209 28.1875L43.1277 28.1628L43.1387 28.1249L43.1463 28.0995L43.1539 28.0741C43.2659 27.6836 43.367 27.2889 43.4577 26.8902L43.4639 26.8641L43.4694 26.8386V26.8263V26.8139V26.8015L43.4749 26.7768V26.7644V26.7527V26.741V26.73V26.7183V26.7066V26.6956V26.6846V26.675V26.664V26.6544V26.6448V26.6399V26.6296V26.6262V26.6186V26.5856V26.576V26.5712V26.5643V26.5595V26.5506V26.5457V26.5389V26.5313V26.5251V26.5196V26.5134V26.5052V26.4997V26.4935V26.4846V26.4784V26.4736V26.4626V26.4584V26.4516V26.4481V26.4364V26.433L43.4797 26.4103L43.4845 26.3863V26.3704C43.5107 26.2412 43.5354 26.1106 43.5595 25.9799L42.2072 25.7331L42.2938 25.7338ZM43.8194 19.1338L42.456 19.3112C42.5715 20.2029 42.6286 21.1007 42.6286 22C42.6286 22.1753 42.6265 22.3506 42.6217 22.5252L43.9967 22.5596C43.9967 22.5067 43.9967 22.4531 43.9967 22.3994V22.2454V22.2379V22.2303V22.2228V22.0165V22V21.3613V21.3455V21.3022V21.2919V21.2589V21.2437V21.2176V21.2094V21.1743V21.1654V21.1303C43.9706 20.4545 43.9142 19.7869 43.8283 19.1283L43.8194 19.1338ZM41.8834 12.5668L40.6417 13.1574C41.1024 14.1254 41.486 15.1284 41.7899 16.1562L43.1085 15.7678C42.7847 14.6685 42.3742 13.596 41.882 12.5606L41.8834 12.5668ZM38.0162 6.91625L37.0159 7.8595C37.7529 8.64188 38.4287 9.48063 39.0364 10.3675L40.1708 9.59062C40.0794 9.45312 39.9852 9.31906 39.8889 9.18844L39.8649 9.15475L39.8511 9.1355L39.8422 9.12313L39.8374 9.11625L39.8284 9.10388L39.8099 9.075L39.8023 9.06469L39.7892 9.04681L39.783 9.03856V9.03512L39.7796 9.02962V9.0255L39.7741 9.01794V9.01381V9.009L39.7686 9.00144V8.99662V8.99181L39.7638 8.98494V8.98013L39.7604 8.97531L39.7549 8.96775V8.96362L39.7507 8.95881L39.7473 8.954L39.7425 8.94712V8.94369L39.737 8.93681V8.932L39.7329 8.9265V8.92306L39.7274 8.9155V8.91138L39.7225 8.90519L39.7191 8.90038L39.7143 8.89419V8.89075L39.7081 8.8825L39.7026 8.87562L39.6964 8.86669L39.6902 8.85844L39.6847 8.85087L39.6779 8.84194L39.671 8.833L39.6036 8.8L39.5967 8.79106L39.5905 8.78213L39.5837 8.7725L39.5768 8.76288L39.5699 8.75394L39.5624 8.74431L39.5472 8.72437L39.5349 8.70375L39.5197 8.68381L39.5122 8.6735L39.5039 8.66319L39.4964 8.65287L39.4805 8.63225L39.4558 8.60063L39.431 8.569L39.4145 8.54769C39.1856 8.25 38.9477 7.95919 38.7016 7.67387L38.6844 7.65394L38.6617 7.63125L38.6535 7.62163L38.637 7.60237L38.6287 7.59275L38.6205 7.58381L38.6122 7.57487L38.6047 7.56594L38.5971 7.55769L38.5895 7.54944L38.5724 7.52812L38.5655 7.51987L38.5586 7.51162L38.5524 7.50475L38.5449 7.4965L38.538 7.48894L38.5325 7.48275L38.5256 7.47519L38.5036 7.44906V7.44494L38.4981 7.43875V7.43531L38.4919 7.42775V7.42431L38.4878 7.4195L38.4837 7.41469L38.4789 7.40919L38.4754 7.40506L38.4699 7.39956L38.4651 7.39406L38.4617 7.38994L38.4562 7.38306L38.452 7.37825L38.4479 7.37344V7.37L38.441 7.36244L38.4211 7.35625L38.4129 7.34662L38.4046 7.337L38.3998 7.3315L38.3895 7.3205L38.3737 7.30262L38.3627 7.29094C38.2506 7.1665 38.1372 7.04344 38.0224 6.92175L38.0162 6.91625ZM32.6042 2.7225L31.9394 3.91875C32.8805 4.43781 33.7798 5.02906 34.6295 5.68769L35.4724 4.60625L35.4635 4.59938L35.4456 4.58563L35.436 4.57806L35.4305 4.57394L35.4209 4.56638L35.4099 4.55813L35.3844 4.5375L35.3741 4.52994L35.3555 4.51619L35.3411 4.50037L35.3219 4.48594L35.2985 4.46875L35.2861 4.45913L35.2669 4.444L35.2345 4.41925C35.0097 4.25012 34.7822 4.08512 34.5519 3.92494L34.5161 3.90225L34.4274 3.84106L34.4068 3.82731L34.393 3.81837L34.3731 3.80463L34.3607 3.79637L34.3539 3.79156L34.3394 3.78125L34.3202 3.76819L34.3099 3.76131L34.3037 3.75719L34.292 3.74962L34.2796 3.74137L34.2734 3.73725L34.2624 3.72969L34.2432 3.71663L34.2322 3.70906L34.226 3.70494L34.2157 3.69806L34.206 3.69119L34.1724 3.66987L34.1614 3.663L34.1428 3.65062L34.1325 3.64375L34.1263 3.63963L34.1153 3.63275L34.1043 3.62519L34.0988 3.62175L34.0892 3.61556L34.0837 3.61213H34.0795L34.0713 3.60662H34.0679L34.0349 3.5805H34.0314L34.0294 3.575H34.0252L34.017 3.5695H34.0129L34.006 3.56469L34.0005 3.56125H33.995H33.9909L33.9826 3.55575H33.9785H33.9737L33.9661 3.53375H33.9613H33.9565L33.9503 3.52962L33.9441 3.5255H33.9393H33.9345L33.9276 3.52069H33.9228H33.918L33.9104 3.51587H33.9056H33.9008L33.8932 3.51106H33.8877H33.8829L33.876 3.50625H33.8712L33.8657 3.50281H33.8616L33.8534 3.49731H33.8492L33.843 3.49319L33.8375 3.48975L33.8286 3.44644H33.8245L33.819 3.4375H33.8149L33.8094 3.43406L33.8039 3.43062L33.797 3.4265H33.7929L33.7853 3.42169H33.7805L33.7743 3.41756H33.7702L33.7599 3.40312H33.7557L33.7489 3.399H33.744L33.7372 3.39488H33.733L33.7248 3.38937H33.7207L33.7152 3.38594L33.7124 3.36875H33.7062H33.7021L33.6911 3.35981H33.687L33.6808 3.35569H33.6767L33.6684 3.35019H33.6643L33.6574 3.34606H33.6533L33.6464 3.34194H33.6423L33.6334 3.33644L33.6265 3.33231L33.6182 3.32681H33.6148L33.6024 3.3L33.5949 3.29519L33.5859 3.28969H33.5825L33.5756 3.28556H33.5715L33.5639 3.28075H33.5605L33.5515 3.27525L33.5447 3.27112H33.5412L33.5323 3.26562L33.5234 3.26013L33.5158 3.25531L33.4883 3.23125L33.4807 3.22644L33.4711 3.22094L33.4622 3.21544L33.4546 3.21063L33.4457 3.20513L33.4161 3.18931L33.4065 3.18313L33.3969 3.17763L33.3886 3.17281L33.3742 3.1625L33.3645 3.157L33.357 3.15219L33.348 3.14669L33.3391 3.14119L33.3302 3.13569L33.3205 3.13019L33.3123 3.12538L33.2786 3.10681L33.269 3.10131L33.2594 3.09375L33.2504 3.08825L33.2422 3.08344L33.2332 3.07794L33.2099 3.06488L33.2009 3.05937L33.1913 3.05387L33.1817 3.04838L33.1734 3.04356L33.1638 3.03806L33.1411 3.025L33.1315 3.0195L33.1219 3.014L33.1136 3.00919L33.104 3.00369L33.0944 2.99819L33.0724 2.98375L33.0627 2.97825L33.0545 2.97344L33.038 2.96312L33.0256 2.95625L33.0174 2.95144L33.0036 2.94319L32.9954 2.93837L32.9871 2.93356L32.9782 2.92806L32.9699 2.92325L32.9603 2.91775L32.9349 2.90194L32.9273 2.89781L32.9101 2.8875H32.9067L32.8984 2.88269L32.8902 2.87787H32.886L32.8771 2.87306L32.8661 2.86275L32.8572 2.85725L32.8475 2.85175L32.84 2.84763H32.8365L32.8276 2.84281H32.8235L32.8166 2.83869H32.8118L32.8049 2.83456H32.8008L32.7809 2.81875H32.7774L32.7712 2.81531H32.7671L32.7582 2.8105H32.754L32.7472 2.80637H32.7417L32.7355 2.80294H32.7314L32.7224 2.79813H32.7183L32.7114 2.79469H32.7059L32.699 2.79125H32.6942L32.686 2.78644H32.6812H32.6757H32.6709L32.664 2.75H32.6599H32.6544L32.6468 2.74587H32.642H32.6372L32.6289 2.74175H32.6234H32.6186L32.611 2.73763H32.6055L32.6042 2.7225ZM26.163 0.392562L25.9045 1.74281C26.9598 1.94494 27.9972 2.22956 29.0079 2.59394L29.4747 1.30075C28.8745 1.08419 28.2619 0.893063 27.6377 0.728063L27.5724 0.710875L27.5469 0.704L27.5084 0.693687L27.4816 0.6875L27.4562 0.680625H27.4445H27.4335H27.4218L27.3909 0.664125H27.3792H27.3682H27.3565H27.3455H27.3345H27.3235H27.3125H27.3015H27.2919H27.2809H27.2705H27.2589H27.2479H27.2389H27.2279H27.219H27.208H27.2045H27.1942H27.1853H27.1812H27.1709H27.1255H27.1172H27.1131H27.1028H27.0994L27.0911 0.59125H27.0877H27.078H27.0739H27.0643H27.0602H27.0526H27.0485H27.0382H27.034H27.0265H27.0224H27.0127H27.0079H26.9997H26.9949H26.9866H26.9825H26.9722H26.9687H26.9612H26.9536H26.9433H26.9392H26.9316H26.9268H26.9179H26.9137H26.9048H26.9H26.8924H26.8876H26.878H26.8739H26.8663H26.8642H26.8539H26.8498H26.8415H26.8367H26.8278H26.823L26.8161 0.527313H26.8092H26.8024H26.7975H26.7879H26.7831H26.7762H26.7714H26.7625H26.7577H26.7494H26.7439H26.7364H26.7315H26.7212H26.7171H26.7095H26.7061H26.6958H26.691H26.6834H26.6779H26.6697H26.6649H26.6545H26.6511H26.6435H26.6394H26.6291H26.625H26.6174H26.6099L26.603 0.48125H26.5989H26.5906H26.5851H26.5775H26.5734H26.5631H26.559H26.5507H26.5473H26.537H26.5329H26.5246H26.5143H26.5067H26.4957H26.4868H26.4834L26.4724 0.45375H26.4634H26.4524H26.4414H26.4311H26.4277L26.4036 0.44H26.3947H26.3837H26.3802H26.3706H26.3596L26.3349 0.42625H26.3245H26.3135H26.3032H26.2915H26.2805H26.2689H26.2572H26.2462H26.2345H26.2235H26.2118L26.1644 0.392562H26.163ZM22.0036 0V1.375C22.238 1.375 22.4718 1.37912 22.7042 1.38669L22.7502 0.0116875C22.5962 0.0075625 22.4429 0.0034375 22.2889 0H22.0036Z" fill="#999999"/>
<path d="M22.0069 39.1934C31.5031 39.1934 39.2012 31.4953 39.2012 21.9991C39.2012 12.5029 31.5031 4.80469 22.0069 4.80469C12.5107 4.80469 4.8125 12.5029 4.8125 21.9991C4.8125 31.4953 12.5107 39.1934 22.0069 39.1934Z" fill="#FB4179"/>
</g>
<defs>
<clipPath id="clip0_7388_7762">
<rect width="44" height="44" fill="white"/>
</clipPath>
</defs>
</svg>
