<svg width="24" height="24" viewBox="0 0 168 140" fill="none" xmlns="http://www.w3.org/2000/svg">
<path d="M111.998 133.001V119.001C111.998 111.575 109.048 104.454 103.797 99.2028C98.5458 93.9519 91.4241 91.002 83.9982 91.002H34.9993C27.5735 91.002 20.4517 93.9519 15.2008 99.2028C9.94992 104.454 7 111.575 7 119.001V133.001" stroke="#4F4F4F" stroke-width="13.9997" stroke-linecap="round" stroke-linejoin="round"/>
<path d="M59.4987 62.9987C74.9623 62.9987 87.4981 50.4629 87.4981 34.9993C87.4981 19.5357 74.9623 7 59.4987 7C44.0351 7 31.4994 19.5357 31.4994 34.9993C31.4994 50.4629 44.0351 62.9987 59.4987 62.9987Z" stroke="#4F4F4F" stroke-width="13.9997" stroke-linecap="round" stroke-linejoin="round"/>
<path d="M139.997 42V83.999" stroke="#4F4F4F" stroke-width="13.9997" stroke-linecap="round" stroke-linejoin="round"/>
<path d="M160.996 62.9961H118.997" stroke="#4F4F4F" stroke-width="13.9997" stroke-linecap="round" stroke-linejoin="round"/>
</svg>
