<svg width="30" height="30" viewBox="0 0 30 30" fill="none" xmlns="http://www.w3.org/2000/svg">
<circle cx="15" cy="15" r="15" fill="#F2F2F2"/>
<path d="M17.7207 20.7432L17.5273 21.5342C16.9473 21.7627 16.4844 21.9355 16.1387 22.0527C15.793 22.1758 15.3916 22.2373 14.9346 22.2373C14.2314 22.2373 13.6836 22.0674 13.291 21.7275C12.9043 21.3818 12.7109 20.9453 12.7109 20.418C12.7109 20.2129 12.7256 20.0049 12.7549 19.7939C12.7842 19.5771 12.8311 19.334 12.8955 19.0645L13.6162 16.498C13.6807 16.252 13.7334 16.0205 13.7744 15.8037C13.8213 15.5811 13.8447 15.3789 13.8447 15.1973C13.8447 14.8691 13.7773 14.6406 13.6426 14.5117C13.5078 14.3828 13.25 14.3184 12.8691 14.3184C12.6816 14.3184 12.4883 14.3477 12.2891 14.4062C12.0957 14.4648 11.9287 14.5205 11.7881 14.5732L11.9814 13.7822C12.4561 13.5889 12.9102 13.4248 13.3438 13.29C13.7773 13.1494 14.1875 13.0791 14.5742 13.0791C15.2715 13.0791 15.8076 13.249 16.1826 13.5889C16.5635 13.9229 16.7539 14.3594 16.7539 14.8984C16.7539 15.0098 16.7393 15.2061 16.71 15.4873C16.6865 15.7686 16.6396 16.0264 16.5693 16.2607L15.8486 18.8184C15.79 19.0234 15.7373 19.2578 15.6904 19.5215C15.6436 19.7852 15.6201 19.9844 15.6201 20.1191C15.6201 20.459 15.6963 20.6904 15.8486 20.8135C16.001 20.9365 16.2646 20.998 16.6396 20.998C16.8154 20.998 17.0146 20.9688 17.2373 20.9102C17.46 20.8457 17.6211 20.79 17.7207 20.7432ZM17.9053 10.0117C17.9053 10.457 17.7354 10.8379 17.3955 11.1543C17.0615 11.4648 16.6572 11.6201 16.1826 11.6201C15.708 11.6201 15.3008 11.4648 14.9609 11.1543C14.6211 10.8379 14.4512 10.457 14.4512 10.0117C14.4512 9.56641 14.6211 9.18555 14.9609 8.86914C15.3008 8.55273 15.708 8.39453 16.1826 8.39453C16.6572 8.39453 17.0615 8.55273 17.3955 8.86914C17.7354 9.18555 17.9053 9.56641 17.9053 10.0117Z" fill="#4F4F4F"/>
</svg>
