<svg width="12" height="12" viewBox="0 0 12 12" fill="none" xmlns="http://www.w3.org/2000/svg">
<path d="M0.434 3.356C0.434 2.6 0.648667 2.01667 1.078 1.606C1.51667 1.19533 2.08133 0.99 2.772 0.99C3.46267 0.99 4.02267 1.19533 4.452 1.606C4.88133 2.01667 5.096 2.6 5.096 3.356C5.096 4.112 4.88133 4.69533 4.452 5.106C4.02267 5.51667 3.46267 5.722 2.772 5.722C2.08133 5.722 1.51667 5.51667 1.078 5.106C0.648667 4.69533 0.434 4.112 0.434 3.356ZM9.94 1.144L4.55 11H2.24L7.63 1.144H9.94ZM2.758 2.39C2.31 2.39 2.086 2.712 2.086 3.356C2.086 3.99067 2.31 4.308 2.758 4.308C2.97267 4.308 3.14067 4.22867 3.262 4.07C3.38333 3.91133 3.444 3.67333 3.444 3.356C3.444 2.712 3.21533 2.39 2.758 2.39ZM7.098 8.788C7.098 8.032 7.31267 7.44867 7.742 7.038C8.17133 6.62733 8.73133 6.422 9.422 6.422C10.1127 6.422 10.6727 6.62733 11.102 7.038C11.5313 7.44867 11.746 8.032 11.746 8.788C11.746 9.544 11.5313 10.1273 11.102 10.538C10.6727 10.9487 10.1127 11.154 9.422 11.154C8.73133 11.154 8.17133 10.9487 7.742 10.538C7.31267 10.1273 7.098 9.544 7.098 8.788ZM9.408 7.822C9.19333 7.822 9.02533 7.90133 8.904 8.06C8.792 8.21867 8.736 8.46133 8.736 8.788C8.736 9.42267 8.96 9.74 9.408 9.74C9.62267 9.74 9.79067 9.66067 9.912 9.502C10.0333 9.34333 10.094 9.10533 10.094 8.788C10.094 8.47067 10.0333 8.23267 9.912 8.074C9.79067 7.906 9.62267 7.822 9.408 7.822Z" fill="#4F4F4F"/>
</svg>
