<svg width="25" height="25" viewBox="0 0 75 108" fill="none" xmlns="http://www.w3.org/2000/svg">
<g clip-path="url(#clip0_7910_8588)">
<path fill-rule="evenodd" clip-rule="evenodd" d="M12.0004 2.96973e-05H51.8784C55.0595 0.00234687 58.1096 1.22638 60.3581 3.40311C62.6067 5.57984 63.8698 8.53113 63.8698 11.6083V16.5471H59.722V12.6573H4.12967V91.328H59.722V82.0274L60.3365 81.6602C61.5608 80.9249 62.7405 80.1223 63.8698 79.2564V95.8035C63.8698 98.8807 62.6067 101.832 60.3581 104.009C58.1096 106.185 55.0595 107.409 51.8784 107.412H12.0004C8.81773 107.412 5.76537 106.189 3.51485 104.012C1.26433 101.835 3.43351e-06 98.8822 3.43351e-06 95.8035V11.5908C-0.00118959 10.0669 0.308528 8.55775 0.911407 7.14983C1.51429 5.7419 2.39847 4.46291 3.51329 3.38614C4.62811 2.30938 5.95164 1.45601 7.40803 0.874957C8.86442 0.293902 10.425 -0.00342114 12.0004 2.96973e-05ZM31.8807 94.9294C32.8569 94.9294 33.8112 95.2095 34.6227 95.7343C35.4343 96.2591 36.0667 97.005 36.4399 97.8776C36.813 98.7502 36.9102 99.7103 36.7191 100.636C36.528 101.562 36.0572 102.413 35.3663 103.08C34.6753 103.747 33.7954 104.201 32.8377 104.384C31.88 104.567 30.8877 104.472 29.9863 104.109C29.0849 103.746 28.3149 103.133 27.7739 102.347C27.2328 101.561 26.945 100.638 26.9468 99.6933C26.9456 99.0666 27.0724 98.4459 27.3201 97.8668C27.5677 97.2878 27.9312 96.7617 28.3898 96.319C28.8483 95.8763 29.3927 95.5256 29.9918 95.2871C30.5909 95.0486 31.2328 94.9271 31.8807 94.9294Z" />
<path fill-rule="evenodd" clip-rule="evenodd" d="M71.6142 22.2841C73.1107 22.2772 74.5937 22.557 75.9778 23.1075C77.3619 23.658 78.6195 24.4682 79.6781 25.4914C80.7367 26.5146 81.5753 27.7305 82.1455 29.0689C82.7157 30.4073 83.0061 31.8417 83.0002 33.2893V58.8485C83.0061 60.2965 82.7157 61.7313 82.1456 63.0702C81.5755 64.409 80.7371 65.6255 79.6786 66.6494C78.6201 67.6733 77.3626 68.4843 75.9785 69.0358C74.5944 69.5872 73.1111 69.8682 71.6142 69.8624H62.3518C57.5806 75.6928 51.3906 79.198 44.062 81.0861C43.7784 81.1552 43.4807 81.1486 43.2006 81.067C42.9206 80.9854 42.6686 80.8319 42.4716 80.6228C42.3307 80.4706 42.2223 80.2928 42.1528 80.0998C42.0833 79.9069 42.054 79.7025 42.0666 79.4985C42.0792 79.2945 42.1334 79.0949 42.2262 78.9113C42.319 78.7277 42.4485 78.5637 42.6071 78.4288C43.4638 77.7098 44.2448 76.9104 44.9385 76.0424C46.2805 74.1477 47.2797 72.0461 47.8935 69.8274H38.857C37.3612 69.8309 35.8794 69.5483 34.4969 68.9959C33.1144 68.4436 31.8584 67.6323 30.8011 66.6087C29.7438 65.5852 28.9061 64.3696 28.3362 63.0318C27.7663 61.694 27.4753 60.2605 27.4801 58.8135V33.2718C27.4741 31.8245 27.7642 30.3904 28.3338 29.0521C28.9033 27.7138 29.7409 26.4978 30.7984 25.474C31.8559 24.4502 33.1124 23.639 34.4955 23.087C35.8786 22.535 37.3609 22.2532 38.857 22.2579C50.8665 22.2579 59.5686 22.2579 71.5781 22.2579L71.6142 22.2841ZM59.2433 56.4534C59.0602 57.3438 58.5617 58.1445 57.8336 58.7174C57.4858 59.0177 57.0888 59.2599 56.6588 59.4342C56.2097 59.5901 55.7353 59.667 55.2582 59.6614C54.3076 59.6815 53.3811 59.3714 52.6466 58.7873C52.2877 58.4916 51.9823 58.1401 51.743 57.7471C51.5145 57.3529 51.3556 56.9245 51.2731 56.4796C51.2627 56.4262 51.2633 56.3714 51.275 56.3182C51.2866 56.265 51.3091 56.2146 51.341 56.1699C51.373 56.1252 51.4138 56.087 51.461 56.0577C51.5083 56.0283 51.5612 56.0083 51.6165 55.9989H58.8457C58.9125 55.9991 58.9784 56.0144 59.0381 56.0433C59.0979 56.0723 59.1499 56.1142 59.1901 56.1658C59.2304 56.2174 59.2577 56.2774 59.2701 56.3409C59.2824 56.4044 59.2794 56.4699 59.2613 56.5321L59.2433 56.4534ZM58.5475 33.2106C59.0316 33.3996 59.4999 33.6246 59.9481 33.8837H60.0023C60.4229 34.1445 60.8217 34.4368 61.1952 34.7578C61.9712 35.4034 62.6281 36.1719 63.138 37.0305C63.3959 37.4608 63.6166 37.9111 63.7977 38.3766C63.9886 38.8545 64.1309 39.3493 64.2224 39.8539C64.3161 40.3647 64.3645 40.8823 64.367 41.4011V43.0881C64.367 43.6301 64.367 44.1546 64.367 44.6615C64.3658 45.1291 64.396 45.5963 64.4573 46.0601C64.5121 46.5107 64.5967 46.9574 64.7103 47.3975C64.8243 47.8173 64.9755 48.2267 65.1622 48.6213C65.3675 49.0397 65.6093 49.4403 65.8851 49.8189C66.1907 50.2254 66.539 50.6004 66.9243 50.9377C67.3859 51.3465 67.8816 51.7178 68.4063 52.0479C68.535 52.1297 68.6328 52.2497 68.6852 52.3898C68.7377 52.53 68.7418 52.6827 68.6971 52.8253C68.6523 52.9679 68.5611 53.0927 68.4371 53.181C68.313 53.2693 68.1627 53.3164 68.0087 53.3153H42.4716C42.2822 53.3153 42.1007 53.2426 41.9668 53.1131C41.8329 52.9836 41.7577 52.8079 41.7577 52.6248C41.7602 52.5073 41.7929 52.3922 41.8528 52.2899C41.9128 52.1877 41.9981 52.1015 42.1011 52.0391C42.6237 51.7101 43.1165 51.3387 43.574 50.929C43.973 50.6005 44.3309 50.2279 44.6403 49.8189C44.8984 49.4558 45.1251 49.0728 45.3181 48.6738C45.5141 48.279 45.6685 47.866 45.7789 47.4412C45.9169 46.989 46.0196 46.5273 46.0862 46.0601C46.1444 45.5931 46.1746 45.1232 46.1765 44.6528V41.4098C46.1753 40.888 46.2237 40.3672 46.3211 39.8539C46.4115 39.349 46.5538 38.8542 46.7458 38.3766C47.198 37.2036 47.9021 36.1366 48.8118 35.2462C49.7214 34.3557 50.8159 33.6619 52.0231 33.2106C52.3621 33.0863 52.7093 32.9841 53.0623 32.9046C53.1648 32.5181 53.3815 32.1688 53.6858 31.8994C54.1483 31.5591 54.7133 31.3749 55.2943 31.3749C55.8754 31.3749 56.4404 31.5591 56.9028 31.8994C58.3306 33.1232 56.5504 32.4501 58.5475 33.2106Z" />
</g>
<defs>
<clipPath id="clip0_7910_8588">
<rect width="83" height="107.412" fill="white"/>
</clipPath>
</defs>
</svg>
