<svg width="40" height="40" viewBox="0 0 40 40" fill="none" xmlns="http://www.w3.org/2000/svg">
<path d="M19.9747 33.0002C19.7363 33.0002 19.4979 32.9092 19.3163 32.7273L12.6791 26.0899C12.3153 25.7263 12.3153 25.1364 12.6791 24.7729C13.0427 24.409 13.6325 24.409 13.9961 24.7729L19.9747 30.7518L25.9534 24.7729C26.3172 24.409 26.9065 24.409 27.2703 24.7729C27.6341 25.1364 27.6341 25.7263 27.2703 26.0899L20.6332 32.7273C20.4513 32.9092 20.2131 33.0002 19.9747 33.0002Z" fill="#4F4F4F"/>
<path d="M18.8408 26.826C18.8278 26.826 18.8145 26.8257 18.8011 26.8251C18.4345 26.8096 18.111 26.5801 17.9753 26.239L15.3219 19.569L13.8112 22.7937C13.6579 23.1213 13.3291 23.3302 12.9677 23.3302H6.93135C6.41693 23.3302 6 22.9133 6 22.3988C6 21.8844 6.41693 21.4674 6.93135 21.4674H12.3754L14.5479 16.8297C14.7053 16.4935 15.0431 16.2771 15.4191 16.2939C15.7904 16.3051 16.1194 16.5354 16.2567 16.8807L18.9374 23.6186L21.317 18.8592C21.4753 18.5426 21.8109 18.3386 22.1527 18.3445C22.5066 18.3454 22.8292 18.5469 22.9857 18.8642L24.2675 21.4674H33.0092C33.5236 21.4674 33.9405 21.8844 33.9405 22.3988C33.9405 22.9133 33.5236 23.3302 33.0092 23.3302H23.6882C23.3334 23.3302 23.0093 23.1287 22.8528 22.8102L22.144 21.3709L19.6738 26.3113C19.5155 26.628 19.1923 26.826 18.8408 26.826Z" fill="#4F4F4F"/>
<path d="M7.48372 19.8803C7.12546 19.8803 6.78397 19.6723 6.63029 19.323C5.40029 16.5214 6.00163 13.3149 8.16237 11.1541C11.034 8.28198 15.7076 8.28198 18.5798 11.1541L19.975 12.5496L21.3702 11.1544C24.2421 8.28229 28.915 8.28167 31.7876 11.1544C33.9484 13.3149 34.5497 16.5214 33.3197 19.323C33.1129 19.7936 32.5638 20.0082 32.0925 19.8014C31.6212 19.5946 31.4073 19.0451 31.6141 18.5741C32.5333 16.4807 32.0847 14.0855 30.4707 12.4717C28.3252 10.3261 24.8335 10.3254 22.6874 12.4717L20.6338 14.5254C20.2699 14.8893 19.6804 14.8893 19.3168 14.5254L17.2632 12.4717C15.1174 10.3261 11.6258 10.3261 9.47992 12.4717C7.8662 14.0855 7.41729 16.481 8.33653 18.5745C8.54329 19.0454 8.32908 19.5949 7.85813 19.8017C7.73581 19.8548 7.60883 19.8803 7.48372 19.8803Z" fill="#4F4F4F"/>
</svg>
