<svg width="20" height="20" viewBox="0 0 50 50" fill="none" xmlns="http://www.w3.org/2000/svg">
<path d="M55.5296 56.6701L37.5411 25.7868C37.3231 25.3987 37.0114 25.0768 36.6369 24.8531C36.2625 24.6294 35.8383 24.5117 35.4067 24.5117C34.975 24.5117 34.5509 24.6294 34.1764 24.8531C33.8019 25.0768 33.4902 25.3987 33.2722 25.7868L15.166 56.8542C14.1944 58.5409 14.9893 61.3318 16.903 61.3318H53.9103C55.9712 61.3318 56.5011 58.2649 55.5296 56.6701ZM37.5411 57.6515H33.1544V53.1739H37.5411V57.6515ZM37.5411 48.2669H33.2133L32.8306 32.4112H37.865L37.5411 48.2669Z" fill="#4F4F4F"/>
<path d="M26.5297 30.6686H27.0008L30.7398 24.2589C31.1639 23.5295 31.7403 22.909 32.4263 22.4437C33.1123 21.9783 33.8902 21.68 34.7021 21.571C35.514 21.462 36.3391 21.545 37.116 21.8139C37.8928 22.0828 38.6015 22.5306 39.1893 23.1242C40.8389 20.2106 41.5174 16.8105 41.1191 13.4535C40.7208 10.0965 39.2681 6.97081 36.9872 4.56321C34.7063 2.15562 31.7253 0.601201 28.5081 0.141988C25.291 -0.317226 22.0184 0.344536 19.1999 2.02424C16.3814 3.70393 14.1751 6.3073 12.9246 9.42899C11.6741 12.5507 11.4495 16.0155 12.2859 19.2839C13.1222 22.5524 14.9726 25.4411 17.5488 27.5002C20.125 29.5593 23.2825 30.6732 26.5297 30.6686ZM17.3147 36.8024C12.865 36.6866 8.55163 38.4074 5.31455 41.5899C2.07748 44.7724 0.179001 49.1586 0.0327958 53.7928C-0.010932 54.262 -0.010932 54.7344 0.0327958 55.2036H12.6924L23.4089 36.8024H17.3147Z" fill="#4F4F4F"/>
</svg>
