<svg width="40" height="40" viewBox="0 0 40 40" fill="none" xmlns="http://www.w3.org/2000/svg">
<circle/>
<path d="M27.5 24.125L26.75 23C25.55 21.2 24.95 19.025 24.95 16.85C24.95 14.525 23.45 12.575 21.425 11.975C21.2 11.375 20.6 11 20 11C19.4 11 18.8 11.375 18.575 11.975C16.55 12.575 15.05 14.525 15.05 16.85C15.05 19.025 14.45 21.2 13.25 23L12.5 24.125C12.2 24.65 12.5 25.25 13.1 25.25H26.825C27.425 25.25 27.8 24.575 27.5 24.125Z" stroke="white" stroke-width="2" stroke-miterlimit="10" stroke-linejoin="round"/>
<path d="M22.25 27.5C22.25 28.775 21.275 29.75 20 29.75C18.725 29.75 17.75 28.775 17.75 27.5" stroke="white" stroke-width="2" stroke-miterlimit="10" stroke-linejoin="round"/>
</svg>
